<?xml version="1.0" standalone="no"?><!DOCTYPE svg PUBLIC "-//W3C//DTD SVG 1.1//EN" "http://www.w3.org/Graphics/SVG/1.1/DTD/svg11.dtd"><svg t="1558058994724" class="icon" style="" viewBox="0 0 1024 1024" version="1.1" xmlns="http://www.w3.org/2000/svg" p-id="1540" xmlns:xlink="http://www.w3.org/1999/xlink" width="200" height="200"><defs><style type="text/css"></style></defs><path d="M329.81333333 160.85333333c8.74666667 5.86666667 17.49333333 11.73333333 23.36 20.48 8.74666667 5.86666667 14.61333333 14.61333333 20.48 23.36 2.88 5.86666667 8.74666667 11.62666667 11.73333334 17.49333334 5.86666667 5.86666667 8.74666667 11.62666667 11.62666666 17.49333333 2.88 5.86666667 8.74666667 14.61333333 11.62666667 20.48h195.62666667c2.88-5.86666667 8.74666667-11.62666667 11.73333333-20.48 2.88-5.86666667 5.86666667-11.62666667 11.62666667-17.49333333 2.88-2.88 5.86666667-5.86666667 8.74666666-11.73333334 5.86666667-8.74666667 11.62666667-17.49333333 17.49333334-23.36 5.86666667-8.74666667 14.61333333-14.61333333 26.24-23.36 5.86666667-2.88 11.62666667-5.86666667 14.61333333-11.62666666 2.88-5.86666667 5.86666667-8.74666667 5.86666667-14.61333334s0-8.74666667-2.88-14.61333333-5.86666667-8.74666667-11.62666667-11.62666667c-5.86666667-2.88-11.62666667-2.88-14.61333333-2.88-2.88 0-8.74666667 2.88-11.73333334 2.88-2.88 0-8.74666667 2.88-11.62666666 5.86666667-2.88 2.88-8.74666667 2.88-14.61333334 2.88s-11.62666667 0-14.61333333-2.88c-2.88-2.88-8.74666667-5.86666667-11.73333333-8.74666667-2.88-2.88-5.86666667-5.86666667-11.62666667-8.74666666-2.88-2.88-8.74666667-5.86666667-14.61333333-8.74666667-11.62666667-5.86666667-23.36-5.86666667-29.22666667-2.88-8.74666667 2.88-14.61333333 8.74666667-23.36 14.61333333-5.86666667 5.86666667-11.62666667 11.73333333-14.61333333 11.73333334-2.88 0-2.88 2.88-5.86666667 2.88-2.88-2.88-5.86666667-2.88-11.62666667-5.86666667-2.88-2.88-5.86666667-2.88-8.74666666-5.86666667l-8.74666667-8.74666666c-2.88-2.88-11.62666667-5.86666667-20.48-8.74666667-8.74666667-2.88-17.49333333 0-26.24 5.86666667-11.62666667 5.86666667-17.49333333 11.62666667-23.36 17.49333333-5.86666667 5.86666667-11.62666667 8.74666667-20.48 8.74666667h-17.49333333c-2.88-2.88-8.74666667-2.88-14.61333334-5.86666667-5.86666667-2.88-11.62666667-2.88-17.49333333-2.88s-11.62666667 0-14.61333333 2.88c-8.74666667 5.86666667-11.73333333 14.61333333-8.74666667 26.24 2.88 8.74666667 8.74666667 14.50666667 14.61333333 20.37333333z m0 0M834.98666667 604.69333333c-5.86666667-32.10666667-11.62666667-58.34666667-23.36-81.70666666-11.62666667-23.36-26.24-43.84-40.85333334-61.33333334-14.61333333-17.49333333-32.10666667-32.10666667-46.72-46.72-17.49333333-14.61333333-34.98666667-29.22666667-46.72-43.84-11.73333333-14.61333333-26.24-26.24-35.09333333-35.09333333-11.62666667-11.62666667-20.48-23.36-29.22666667-32.10666667H402.77333333c-5.86666667 11.62666667-17.49333333 23.36-26.24 35.09333334-8.74666667 11.62666667-20.48 23.36-32.10666666 34.98666666-11.62666667 11.62666667-29.22666667 26.24-43.84 40.85333334-17.49333333 17.49333333-34.98666667 34.98666667-52.58666667 55.46666666-17.49333333 20.48-29.22666667 43.84-40.85333333 67.2-11.73333333 23.36-17.49333333 49.6-20.48 78.82666667-2.88 29.22666667-2.88 58.45333333 2.88 87.57333333 5.86666667 26.24 14.61333333 55.46666667 32.10666666 81.70666667 14.61333333 26.24 34.98666667 52.58666667 64.21333334 75.94666667 29.22666667 23.36 58.34666667 40.85333333 96.32 55.46666666C420.26666667 931.73333333 464.10666667 937.6 513.70666667 937.6c46.72 0 90.56-5.86666667 128.42666666-17.49333333 37.97333333-11.73333333 70.08-29.22666667 96.32-49.6 26.24-20.48 49.6-43.84 64.21333334-72.96 17.49333333-26.24 26.24-58.34666667 32.10666666-87.57333334 3.09333333-38.08 5.97333333-73.17333333 0.21333334-105.28zM598.4 721.49333333c17.49333333 0 26.24 5.86666667 26.24 20.48 0 5.86666667 0 11.62666667-5.86666667 14.61333334-2.88 2.88-8.74666667 2.88-14.61333333 2.88h-64.21333333v17.49333333c0 5.86666667-2.88 11.62666667-5.86666667 17.49333333-5.86666667 5.86666667-11.62666667 8.74666667-17.49333333 5.86666667-8.74666667 0-14.61333333-2.88-17.49333334-5.86666667-5.86666667-2.88-8.74666667-8.74666667-8.74666666-17.49333333V759.46666667h-67.2c-5.86666667 0-11.62666667-2.88-14.61333334-5.86666667-2.88-2.88-5.86666667-8.74666667-5.86666666-11.62666667 0-5.86666667 2.88-8.74666667 5.86666666-14.61333333 2.88-2.88 8.74666667-5.86666667 14.61333334-5.86666667H487.46666667v-32.10666666h-64.21333334c-5.86666667 0-11.62666667-2.88-14.61333333-5.86666667-2.88-2.88-5.86666667-8.74666667-5.86666667-11.73333333 0-2.88 2.88-8.74666667 5.86666667-14.61333334 2.88-2.88 8.74666667-5.86666667 14.61333333-5.86666666H487.46666667v-20.48l-32.10666667-32.10666667c-8.74666667-8.74666667-14.61333333-17.49333333-23.36-23.36l-11.73333333-14.4c-2.88-2.88-5.86666667-8.74666667-8.74666667-14.61333333-2.88-5.86666667 0-14.61333333 2.88-20.48 5.86666667-5.86666667 11.62666667-8.74666667 20.48-5.86666667 8.74666667 2.88 14.61333333 5.86666667 20.48 11.62666667 2.88 2.88 5.86666667 8.74666667 11.62666667 14.61333333l46.72 46.72c11.62666667-8.74666667 20.48-17.49333333 29.22666666-26.24 8.74666667-5.86666667 14.61333333-14.61333333 23.36-20.48s11.62666667-11.62666667 14.61333334-14.61333333c5.86666667-5.86666667 11.62666667-8.74666667 17.49333333-8.74666667 5.86666667 0 11.73333333 2.88 17.49333333 8.74666667 8.74666667 8.74666667 5.86666667 20.48-8.74666666 32.10666666L589.65333333 581.33333333l-52.58666666 52.58666667V648.53333333H598.4c8.74666667 0 14.61333333 2.88 20.48 5.86666667 5.86666667 2.88 5.86666667 8.74666667 5.86666667 14.61333333s-2.88 11.62666667-5.86666667 14.61333334c-2.88 2.88-8.74666667 5.86666667-17.49333333 5.86666666h-61.33333334v32.10666667H598.4z m0 0" p-id="1541"></path></svg>