<?xml version="1.0" standalone="no"?><!DOCTYPE svg PUBLIC "-//W3C//DTD SVG 1.1//EN" "http://www.w3.org/Graphics/SVG/1.1/DTD/svg11.dtd"><svg t="1558058999641" class="icon" style="" viewBox="0 0 1024 1024" version="1.1" xmlns="http://www.w3.org/2000/svg" p-id="1656" xmlns:xlink="http://www.w3.org/1999/xlink" width="200" height="200"><defs><style type="text/css"></style></defs><path d="M296.26846613 116.4921875h431.46306774c99.29043878 0 179.77627863 80.48583984 179.77627863 179.77627863v431.46306774c0 99.29043878-80.48583984 179.77627863-179.77627863 179.77627863H296.26846613C196.97802734 907.5078125 116.4921875 827.02197266 116.4921875 727.73153387V296.26846613C116.4921875 196.97802734 196.97802734 116.4921875 296.26846613 116.4921875z m222.72483117 576.99196569s-6.52587891 48.19802039 22.36416924 24.73721612a506.42977606 506.42977606 0 0 0 78.2745912-79.4611154c2.80450959 9.52814241 6.22025951 18.57088934 10.24724823 27.14621789 2.80450959 7.28093962 6.22025951 14.09446009 10.24724743 20.44056293 3.73934637 6.34610285 8.23375348 12.22478728 13.51917622 17.60009766 7.76633508 6.97531946 16.93492536 10.46297918 27.5057708 10.46297919a30.74174389 30.74174389 0 0 0 25.150701-13.30344447c4.35058594-6.36407991 7.60453686-13.33940014 9.77982983-20.94393622 2.17529297-7.60453686 3.88316754-15.69446918 5.12362372-24.26979772 2.80450959-19.97314453 6.52587891-60.40482983 6.5258789-60.40482983s-26.24733679-23.31698309-27.50577003-6.18430384c-1.22247834 17.11470142-2.78653253 33.92378346-4.63822826 50.42724609-1.25843402 10.78657642-3.41574914 21.08775739-6.52587891 30.92151996-1.86967357 4.44047436-4.97980256 7.13711847-9.33038926 8.08993232a13.60906463 13.60906463 0 0 1-11.18208424-5.24946705 113.79838451 113.79838451 0 0 1-10.24724745-20.44056293 276.40602819 276.40602819 0 0 1-16.30570873-47.56880298 411.70565497 411.70565497 0 0 0 33.54625348-69.93297222c10.87646484-30.75972096 25.16867883-94.67018835 25.16867884-94.67018836s-25.00688061-29.33948871-29.35746578-5.23148999a569.38742884 569.38742884 0 0 1-17.70796391 71.3711831 356.98175569 356.98175569 0 0 1-20.96191406 53.26771059 1585.73464148 1585.73464148 0 0 1-16.77312636-163.16494971h100.63876044v-32.35973006h-39.1372956l19.55965888-15.20907371a1183.39532991 1183.39532991 0 0 0-46.11261583-50.91264155l-21.44730951 17.13267926c14.29221398 16.17986541 28.42262977 32.50355121 42.40922358 48.989036h-57.78009554L610.31964631 296.26846613h-31.22713936c0.9348368 23.15518488 2.01349397 45.98677174 3.27192877 68.49476213h-165.41215404v199.8033559a273.81724958 273.81724958 0 0 1-12.58433941 79.4431368c-7.13711847 22.20237023-17.07874652 43.12832941-29.82488496 62.79585454L404.85333772 727.73153387a279.83975519 279.83975519 0 0 0 29.82488494-72.79141456c8.37757464-29.48330988 12.88995881-59.6138142 13.50119836-90.37353515V397.12295832h136.0546875c1.86967357 36.13503211 4.81800433 72.14422088 8.86297089 107.97363281 3.72136931 32.35973004 9.16859027 64.23406463 16.30570795 95.6230022a355.05815014 355.05815014 0 0 1-42.40922358 51.38006071v-132.24343052h-95.04771833v135.55131342h91.326349c-13.98659461 13.96861676-44.26092009 38.07661549-44.26091931 38.07661626z m-137.45694268-191.22802734l-33.07883509-6.18430384A4704.99689241 4704.99689241 0 0 1 296.26846613 685.39422088l34.48109026 8.08993232 50.78679823-191.22802734z m-74.08580426-177.43918665a2093.29700824 2093.29700824 0 0 1 48.91712542 127.01194056l32.62939453-11.90119005a8842.02658898 8842.02658898 0 0 0-50.33735767-126.05912593l-31.20916228 10.94837542z m160.28852955 121.78045057v30.92151996h106.24778117v-30.92151996h-106.24778117z m30.27432549 104.1803537h42.40922437v74.19366973h-42.40922437v-74.19366973z" p-id="1657"></path></svg>