<?xml version="1.0" standalone="no"?><!DOCTYPE svg PUBLIC "-//W3C//DTD SVG 1.1//EN" "http://www.w3.org/Graphics/SVG/1.1/DTD/svg11.dtd"><svg t="1558057463856" class="icon" style="" viewBox="0 0 1024 1024" version="1.1" xmlns="http://www.w3.org/2000/svg" p-id="1047" xmlns:xlink="http://www.w3.org/1999/xlink" width="200" height="200"><defs><style type="text/css"></style></defs><path d="M479.56574023 425.68012461c0 35.9819042-29.44153828 65.42344248-65.42344247 65.42344248L181.61575068 491.10356797c-35.98280332 0-65.42344248-29.44153828-65.42344248-65.42344248L116.19230732 183.25398974c0-35.9819042 29.43974004-65.42344248 65.42344248-65.42344247l232.52834619 0c35.9819042 0 65.42344248 29.44063916 65.42344248 65.42344247L479.56574023 425.68012461 479.56574023 425.68012461z" p-id="1048"></path><path d="M479.56574023 840.75680322c0 35.98280332-29.44153828 65.42164424-65.42344247 65.42164424L181.61575068 906.17844658c-35.98280332 0-65.42344248-29.43884003-65.42344248-65.42164424l0-242.42163838c0-35.98280332 29.43974004-65.42164424 65.42344248-65.42164423l232.52834619 0c35.9819042 0 65.42344248 29.43974004 65.42344248 65.42164423L479.56574023 840.75680322 479.56574023 840.75680322z" p-id="1049"></path><path d="M904.53661016 425.68012461c0 35.9819042-29.43974004 65.42344248-65.42344248 65.42344248L606.5731294 491.10356797c-35.98460244 0-65.42254336-29.44153828-65.42254336-65.42344248L541.15058604 183.25398974c0-35.9819042 29.43974004-65.42344248 65.42254336-65.42344247l232.54183652 0c35.98280332 0 65.42254336 29.44063916 65.42254335 65.42344247L904.53661016 425.68012461z" p-id="1050"></path><path d="M904.54020752 840.75680322c0 35.98280332-29.44153828 65.42164424-65.42344249 65.42164424L606.57402852 906.17844658c-35.98370332 0-65.42254336-29.43884003-65.42254336-65.42164424l0-242.42163838c0-35.98280332 29.43974004-65.42164424 65.42254336-65.42164423l232.54273564 0c35.98280332 0 65.42344248 29.43974004 65.42344248 65.42164423L904.54020752 840.75680322z" p-id="1051"></path></svg>