<?xml version="1.0" standalone="no"?><!DOCTYPE svg PUBLIC "-//W3C//DTD SVG 1.1//EN" "http://www.w3.org/Graphics/SVG/1.1/DTD/svg11.dtd"><svg t="1558057537393" class="icon" style="" viewBox="0 0 1033 1024" version="1.1" xmlns="http://www.w3.org/2000/svg" p-id="1079" xmlns:xlink="http://www.w3.org/1999/xlink" width="201.7578125" height="200"><defs><style type="text/css"></style></defs><path d="M465.08200986 530.83362637L131.80081918 372.32919033a60.26784631 60.26784631 0 0 1 0-112.39953332L465.08200986 101.42522098a120.53569263 120.53569263 0 0 1 101.55132092-1e-8l333.28119067 158.50443604a60.26784631 60.26784631 0 0 1 0 112.39953332L566.63333078 530.83362637a120.53569263 120.53569263 0 0 1-101.55132092 0z" p-id="1080"></path><path d="M515.85767032 742.82577597a158.05242746 158.05242746 0 0 1-69.9107017-16.27231778L118.99390213 564.13161203a45.20088473 45.20088473 0 1 1 40.07811759-80.60824457L485.72374716 645.94521362a69.00668372 69.00668372 0 0 0 60.26784632 0l326.9530665-162.42184616a45.20088473 45.20088473 0 1 1 40.07811758 80.60824457L585.76837201 726.5534582A157.60041806 157.60041806 0 0 1 515.85767032 742.82577597z" p-id="1081"></path><path d="M515.85767032 933.87484921a157.60041806 157.60041806 0 0 1-69.9107017-16.2723186L118.99390213 755.18068445a45.20088473 45.20088473 0 1 1 40.07811759-80.60824458L485.72374716 836.99428603a67.95199704 67.95199704 0 0 0 60.26784632 1e-8l326.9530665-162.42184617a45.20088473 45.20088473 0 1 1 40.07811758 80.60824458L585.76837201 917.60253061A157.60041806 157.60041806 0 0 1 515.85767032 933.87484921z" p-id="1082"></path></svg>