<?xml version="1.0" standalone="no"?><!DOCTYPE svg PUBLIC "-//W3C//DTD SVG 1.1//EN" "http://www.w3.org/Graphics/SVG/1.1/DTD/svg11.dtd"><svg t="1558059003337" class="icon" style="" viewBox="0 0 1024 1024" version="1.1" xmlns="http://www.w3.org/2000/svg" p-id="1772" xmlns:xlink="http://www.w3.org/1999/xlink" width="200" height="200"><defs><style type="text/css"></style></defs><path d="M127.01 829.505h222.495V471.995L288.62 429.5 127.01 567.005zM402.005 829.505H624.5v-355.425L517.01 564.5l-115.005-62.505zM677 432.005v397.5h222.495V434.495L804.515 309.5z" fill="" p-id="1773"></path><path d="M163.76 467.51l121.005-101.22 231.165 140.73 274.14-258.18c0.99-0.93 1.8-2.01 2.64-3.045l46.17 46.695 74.355-209.25-213.3 68.715 51.045 51.63c-0.675 0.525-1.395 0.96-2.04 1.56L508.085 431.99 279.26 292.7 125.27 421.49c-12.72 10.635-14.4 29.55-3.765 42.255s29.565 14.415 42.255 3.765zM894.5 870.74H125.75c-16.56 0-30 13.44-30 30s13.44 30 30 30h768.75c16.56 0 30-13.44 30-30s-13.44-30-30-30z" fill="" p-id="1774"></path></svg>