<?xml version="1.0" standalone="no"?><!DOCTYPE svg PUBLIC "-//W3C//DTD SVG 1.1//EN" "http://www.w3.org/Graphics/SVG/1.1/DTD/svg11.dtd"><svg t="1558058067115" class="icon" style="" viewBox="0 0 1024 1024" version="1.1" xmlns="http://www.w3.org/2000/svg" p-id="1675" xmlns:xlink="http://www.w3.org/1999/xlink" width="200" height="200"><defs><style type="text/css"></style></defs><path d="M512 905.08671877L96.28958517 905.08671877c0-82.01089817 14.13981003-138.57013827 82.01089817-164.02179632s155.5379103-56.55924012 206.44122641-98.97867019c56.55924012-48.07535409 42.41943008-48.07535409 28.27962005-65.04312613-19.79573404-22.62369604-22.62369604-79.18293616-22.62369604-79.18293616-59.38720211-16.96777203-45.24739209-113.11848021-31.10758206-113.11848022s14.13981003-5.65592402 5.65592401-56.55924012c-11.31184801-65.04312613-5.65592402-98.9786702 25.45165805-138.57013827S512 144.36493927 512 144.36493927l0 0c0 0 90.49478418 5.65592402 121.60236624 45.24739209s36.76350606 73.52701215 25.45165805 138.57013827c-8.48388603 50.90331611-8.48388603 56.55924012 5.65592401 56.55924012s25.45165805 96.15070819-31.10758206 113.11848022c0 0-2.82796201 56.55924012-22.62369604 79.18293616-14.13981003 16.96777203-28.27962006 16.96777203 28.27962005 65.04312613 50.90331611 42.41943008 138.57013827 76.35497415 206.44122641 98.97867019s82.01089817 82.01089817 82.01089817 164.02179632L512 905.08671877 512 905.08671877z" p-id="1676"></path><path d="M958.8179969 862.66728869l135.74217625 0c0-59.38720211-11.31184801-104.63459421-62.21516413-121.60236624s-115.94644224-42.41943008-152.70994829-73.52701215c-42.41943008-36.76350606-31.10758207-36.76350606-19.79573404-48.07535409 14.13981003-16.96777203 16.96777203-59.38720211 16.96777203-59.38720212 42.41943008-11.31184801 33.93554407-82.01089817 22.62369605-82.01089816s-11.31184801-2.82796201-2.82796201-42.41943008c8.48388603-48.07535409 5.65592402-73.52701215-19.79573404-101.8066322-22.62369604-31.10758207-90.49478418-33.93554407-90.49478418-33.93554407l0 0c0 0-67.87108813 2.82796201-90.49478417 33.93554407-5.65592402 5.65592402-8.48388603 14.13981003-14.13981003 19.79573403 0 0 25.45165805 14.13981003 28.27962004 42.41943008 2.82796201 25.45165805 2.82796201 50.90331611-11.31184801 87.66682218s-19.79573404 56.55924012 11.31184801 84.83886018c16.96777203 14.13981003 5.65592402 76.35497415 5.65592403 76.35497414s79.18293616 42.41943008 164.02179632 70.69905015C967.3018829 743.89288446 958.8179969 862.66728869 958.8179969 862.66728869z" p-id="1677"></path><path d="M65.1820031 862.66728869L-70.56017315 862.66728869c0-59.38720211 11.31184801-104.63459421 62.21516413-121.60236624s115.94644224-42.41943008 152.70994829-73.52701215c42.41943008-36.76350606 31.10758207-36.76350606 19.79573404-48.07535409-14.13981003-16.96777203-16.96777203-59.38720211-16.96777203-59.38720212-42.41943008-11.31184801-33.93554407-82.01089817-22.62369605-82.01089816s11.31184801-2.82796201 2.82796201-42.41943008c-8.48388603-48.07535409-5.65592402-73.52701215 19.79573404-101.8066322 22.62369604-31.10758207 90.49478418-33.93554407 90.49478418-33.93554407l0 0c0 0 67.87108813 2.82796201 90.49478417 33.93554407 5.65592402 5.65592402 8.48388603 14.13981003 14.13981003 19.79573403 0 0-25.45165805 14.13981003-28.27962004 42.41943008-2.82796201 25.45165805-2.82796201 50.90331611 11.31184801 87.66682218s19.79573404 56.55924012-11.31184801 84.83886018c-16.96777203 14.13981003-5.65592402 76.35497415-5.65592403 76.35497414s-79.18293616 42.41943008-164.02179632 70.69905015C56.6981171 743.89288446 65.1820031 862.66728869 65.1820031 862.66728869z" p-id="1678"></path></svg>