<?xml version="1.0" standalone="no"?><!DOCTYPE svg PUBLIC "-//W3C//DTD SVG 1.1//EN" "http://www.w3.org/Graphics/SVG/1.1/DTD/svg11.dtd"><svg t="1558057779538" class="icon" style="" viewBox="0 0 1024 1024" version="1.1" xmlns="http://www.w3.org/2000/svg" p-id="1169" xmlns:xlink="http://www.w3.org/1999/xlink" width="200" height="200"><defs><style type="text/css"></style></defs><path d="M1028.9163232 370.0345504h-42.7017824v-180.9207136c0-12.41273387-10.06413653-22.47462293-22.47462293-22.47462293s-22.47462293 10.06188907-22.47462294 22.47462293v180.9207136h-29.77887466v-180.9207136c0-12.41273387-10.06413653-22.47462293-22.47462294-22.47462293s-22.47462293 10.06188907-22.47462293 22.47462293v180.9207136H836.75829867v-180.9207136c0-12.41273387-10.06413653-22.47462293-22.47462187-22.47462293s-22.47462293 10.06188907-22.47462293 22.47462293v180.9207136h-75.48326827l56.87203307-143.1296352c4.58482347-11.536224-1.05181227-24.6029696-12.58803627-29.1855456-11.53172907-4.58032853-24.59847467 1.05181227-29.18329813 12.58803627l-63.46833494 159.729392h-196.03489706l16.3143296-70.99059094c2.7688736-12.04639787-5.07926507-21.90376747-17.44030827-21.90376746h-39.70366827v-28.28656l41.57355734-35.53912107c9.43259947-8.0638944 10.54284587-22.25212373 2.48119786-31.68697067-8.06614187-9.43259947-22.2476288-10.54958827-31.68921706-2.48119893l-12.36553814 10.56981547V164.01867307c0-12.41273387-10.06413653-22.47462293-22.47462293-22.47462294-12.41273387 0-22.47462293 10.06188907-22.47462293 22.47462294v6.6007968l-13.21957227-13.39487467c-8.72240107-8.83702187-22.95333227-8.929168-31.7858592-0.21126187-8.8347744 8.71790613-8.929168 22.94883733-0.21126187 31.78361174L386.142112 234.6159584V277.140192h-51.691632c-12.36104213 0-20.2091808 9.8573696-17.4403072 21.90376747l16.31432853 70.99059093H244.55198933c-16.06935573 0-29.21701013 13.1476544-29.21701013 29.21700907v78.66117973c0 16.06935573 13.1476544 29.21701013 29.21701013 29.21701013h784.36433387c16.06935573 0 29.21701013-13.1476544 29.21701013-29.21701013v-78.66117973c0-16.06935573-13.1476544-29.21701013-29.21701013-29.21700907zM779.44801067 745.36075093H345.40236373l-55.1572192-158.3022528c-4.081392-11.72051627-16.88743147-17.91227413-28.6169376-13.82863573-11.72276373 4.08363947-17.9145216 16.89642133-13.82863466 28.61693653l50.00378773 143.513952H240.61893013v-176.4257888c0-12.41273387-10.06413653-22.47462293-22.47462293-22.47462293s-22.47462293 10.06188907-22.47462293 22.47462293v176.4257888H179.37558293v-176.4257888c0-12.41273387-10.06413653-22.47462293-22.47462293-22.47462293s-22.47462293 10.06188907-22.47462293 22.47462293v176.4257888h-16.29410134v-176.4257888c0-12.41273387-10.06413653-22.47462293-22.47462293-22.47462293s-22.47462293 10.06188907-22.47462293 22.47462293v176.4257888H56.88888853v-176.4257888c0-12.41273387-10.06413653-22.47462293-22.47462293-22.47462293s-22.47462293 10.06188907-22.47462187 22.47462293v176.4257888H-4.9163232c-16.06935573 0-29.21701013 13.1476544-29.21701013 29.21700907v78.66117973c0 16.06935573 13.1476544 29.21701013 29.21701013 29.21701014h784.36433387c16.06935573 0 29.21701013-13.1476544 29.21701013-29.21701014v-78.66117973c0-16.06935573-13.1476544-29.21701013-29.21701013-29.21700907z" p-id="1170"></path></svg>