<?xml version="1.0" standalone="no"?><!DOCTYPE svg PUBLIC "-//W3C//DTD SVG 1.1//EN" "http://www.w3.org/Graphics/SVG/1.1/DTD/svg11.dtd"><svg t="1558057790175" class="icon" style="" viewBox="0 0 1024 1024" version="1.1" xmlns="http://www.w3.org/2000/svg" p-id="1401" xmlns:xlink="http://www.w3.org/1999/xlink" width="200" height="200"><defs><style type="text/css"></style></defs><path d="M862.04705451 302.49092665L546.29489323 130.87034368c-10.69754254-5.81099634-22.43945813-8.72988445-34.18137373-8.72988445-11.76520135 0-23.53156779 2.91772302-34.20582457 8.72988445L162.1066331 302.60968448c-23.79236921 12.90388253-38.66507491 38.23777792-38.66507491 65.84903566l0 332.92201984c0 27.61125661 14.87270457 52.94631709 38.68952462 65.87348537l315.77661098 171.64270478c10.67425678 5.81216142 22.43945813 8.72988445 34.18137373 8.72988445 11.76520135 0 23.48383118-2.91772302 34.20582457-8.72988445l315.77661098-171.71489109c23.79353315-12.95045405 38.66623886-38.25989973 38.66623887-65.87115634L900.73774307 368.36324807C900.73774307 340.77644117 885.86387342 315.44254464 862.04705451 302.49092665zM487.79838123 705.10648434c0 13.35562809-10.93505934 24.28835954-24.28952349 24.28835953L317.76473088 729.39484387c-13.35446414 0-24.28952349-10.93389539-24.28952349-24.28835953L293.47520853 559.36468651c0-13.35562809 10.93505934-24.29068743 24.28952349-24.29068744l145.74412572 0c13.35562809 0 24.28952349 10.93622329 24.28952349 24.29068744L487.79838123 705.10648434zM706.41224135 705.10648434c0 13.35562809-10.93505934 24.28835954-24.28952348 24.28835953L536.37859214 729.39484387c-13.35446414 0-24.28952349-10.93389539-24.28952348-24.28835953L512.08906866 559.36468651c0-13.35562809 10.93622329-24.29068743 24.28952348-24.29068744l145.74412573 0c13.35562809 0 24.28952349 10.93622329 24.28952348 24.29068744L706.41224135 705.10648434zM706.41224135 486.49378816c0 13.35446414-10.93505934 24.28952349-24.28952348 24.28952349L536.37859214 510.78331165c-13.35446414 0-24.28952349-10.93622329-24.28952348-24.28952349L512.08906866 340.75315541c0-13.35446414 10.93622329-24.28952349 24.28952348-24.28952348l145.74412573 0c13.35562809 0 24.28952349 10.93505934 24.28952348 24.28952348L706.41224135 486.49378816z" p-id="1402"></path></svg>