<?xml version="1.0" standalone="no"?><!DOCTYPE svg PUBLIC "-//W3C//DTD SVG 1.1//EN" "http://www.w3.org/Graphics/SVG/1.1/DTD/svg11.dtd"><svg t="1558057786303" class="icon" style="" viewBox="0 0 1024 1024" version="1.1" xmlns="http://www.w3.org/2000/svg" p-id="1285" xmlns:xlink="http://www.w3.org/1999/xlink" width="200" height="200"><defs><style type="text/css"></style></defs><path d="M1021.67438222 555.02961778v195.05038222c0 11.25034667-2.97756445 21.73041778-8.90766222 31.41518222-5.94147555 9.69272889-14.06748445 17.03253333-24.38257778 22.03420445l-210.05653333 105.02940444c-7.81653333 4.37361778-16.72647111 6.56497778-26.72412444 6.56497778-10.00789333 0-18.91555555-2.19022222-26.72412445-6.56497778l-210.05425778-105.02940444c-1.25155555-0.63032889-2.34382222-1.25155555-3.28135111-1.87619556-0.63374222 0.62236445-1.72259555 1.24359111-3.28362666 1.87619556l-210.05425778 105.02940444c-7.81653333 4.37361778-16.72647111 6.56497778-26.72526222 6.56497778-10.00675555 0-18.91555555-2.19022222-26.72412445-6.56497778l-210.05425778-105.02940444c-10.31623111-5.00394667-18.44679111-12.34488889-24.38144-22.03420445-5.94033778-9.68476445-8.90766222-20.16256-8.90766222-31.41518222v-195.05038222c0-11.87612445 3.35530667-22.81585778 10.08071111-32.82261333 6.71744-10.00106667 15.54773333-17.50243555 26.49088-22.50638223l203.48928-87.20952889v-187.55015111c0-11.87612445 3.35530667-22.81358222 10.08184889-32.82261333 6.71630222-9.99992889 15.54773333-17.50129778 26.49088-22.50638222l210.05425778-90.02325334c7.18734222-3.11978667 15.00273778-4.68878222 23.44391111-4.68878222 8.43889778 0 16.25201778 1.56899555 23.44277333 4.68878222l210.05653333 90.02325334c10.93859555 5.00394667 19.76775111 12.50645333 26.48974223 22.50638222 6.71744 10.00675555 10.08184889 20.94648889 10.08184889 32.82261333v187.54787556l203.48928 87.20952889c11.25376 5.00394667 20.16256 12.50645333 26.72412444 22.50638222 6.56156445 10.00789333 9.84632889 20.94762667 9.84632889 32.82375111zM271.47719111 627.23299555l189.42407111-81.11331555-189.42407111-81.11672889-189.42407111 81.11672889 189.42407111 81.11331555zM301.48494222 840.10439111l180.04764445-90.02325333v-147.22616889l-180.04764445 76.89443556v160.35612444zM511.54147555 312.15047111l206.77404445-88.61696-206.77404445-88.61696-206.77404444 88.61696 206.77404444 88.61696zM541.54808889 489.85543111l180.04650666-77.36547556v-124.71864888l-180.04650666 76.89443555v125.18855111zM751.60234667 627.23299555l189.42407111-81.11331555-189.42407111-81.11672889-189.42293334 81.11672889 189.42293334 81.11331555zM781.61237333 840.10439111l180.04536889-90.02325333v-147.22616889l-180.04536889 76.89443556v160.35612444z" p-id="1286"></path></svg>