<?xml version="1.0" standalone="no"?><!DOCTYPE svg PUBLIC "-//W3C//DTD SVG 1.1//EN" "http://www.w3.org/Graphics/SVG/1.1/DTD/svg11.dtd"><svg t="1558058060495" class="icon" style="" viewBox="0 0 1024 1024" version="1.1" xmlns="http://www.w3.org/2000/svg" p-id="1440" xmlns:xlink="http://www.w3.org/1999/xlink" width="200" height="200"><defs><style type="text/css"></style></defs><path d="M919.68853333 789.2992l-40.5504 0 0-59.66506667L912.04266667 729.63413333l0-46.96746666-32.90453334 0 0-55.7056-49.42506666 0 0 55.7056L789.16266667 682.66666667l0-55.7056-49.42506667 0 0 55.7056-33.04106667 0 0 46.96746666 33.04106667 0 0 59.66506667-39.3216 0 0 46.96746667 57.07093333 0c-0.8192 0.8192-2.59413333 2.59413333-5.05173333 5.05173333-23.62026667 27.0336-41.7792 45.60213333-54.4768 55.84213333l39.3216 34.26986667c9.28426667-9.28426667 22.39146667-23.3472 39.3216-41.91573333 10.10346667-10.92266667 18.15893333-19.79733333 24.02986667-26.624l-39.3216-26.624 87.51786666 0-34.26986666 27.8528c15.9744 16.93013333 37.54666667 38.5024 64.7168 64.7168l39.3216-34.26986667c-5.05173333-3.41333333-11.8784-9.69386667-20.34346667-18.97813333-18.56853333-16.93013333-33.04106667-30.03733333-43.14453333-39.3216l64.7168 0L919.82506667 789.2992zM829.71306667 789.2992L789.16266667 789.2992l0-59.66506667 40.5504 0L829.71306667 789.2992z" p-id="1441"></path><path d="M663.552 625.73226667c-12.6976 50.65386667-30.03733333 92.9792-52.0192 126.83946666 0.8192 9.28426667 2.59413333 24.02986667 5.05173333 44.37333334 0.8192 12.6976 1.6384 22.39146667 2.59413334 29.21813333 7.64586667-10.10346667 14.7456-20.34346667 21.57226666-30.44693333l0 134.48533333 49.42506667 0L690.176 703.14666667c9.28426667-19.52426667 17.74933333-40.96 25.3952-64.7168L663.552 625.73226667z" p-id="1442"></path><path d="M441.5488 425.02826667m-65.26293333 0a50.98666667 50.98666667 0 1 0 130.52586666 0 50.98666667 50.98666667 0 1 0-130.52586666 0Z" p-id="1443"></path><path d="M769.36533333 542.17386667c23.62026667 0 46.55786667 3.54986667 67.9936 10.10346666L837.35893333 221.32053333c0-55.43253333-44.91946667-100.352-100.352-100.352L241.52746667 120.96853333c-55.43253333 0-100.352 44.91946667-100.352 100.352l0 584.63573334c0 55.43253333 44.91946667 100.352 100.352 100.352l325.49546666 0 3.41333334-4.36906667c-22.80106667-36.18133333-36.18133333-78.91626667-36.18133334-124.79146667C534.39146667 647.44106667 639.52213333 542.17386667 769.36533333 542.17386667zM471.04 602.5216l-56.66133333 0c-27.98933333-100.62506667-113.32266667-63.76106667-113.32266667-63.76106667l-30.03733333-49.28853333c77.27786667-73.3184 0-127.24906667 0-127.24906667 0 0 0.95573333-1.50186667 29.4912-49.152 98.7136 27.4432 114.14186667-65.26293333 114.14186666-65.26293333l55.97866667 0c18.0224 92.5696 114.688 65.536 114.688 65.536s-0.4096 0.8192 27.57973333 47.5136c-72.9088 67.03786667-0.4096 129.57013333-0.4096 129.57013333s-0.4096 0.4096-27.71626666 47.104C488.78933333 510.08853333 471.04 602.5216 471.04 602.5216z" p-id="1444"></path></svg>