<?xml version="1.0" standalone="no"?><!DOCTYPE svg PUBLIC "-//W3C//DTD SVG 1.1//EN" "http://www.w3.org/Graphics/SVG/1.1/DTD/svg11.dtd"><svg t="1558059169191" class="icon" style="" viewBox="0 0 1024 1024" version="1.1" xmlns="http://www.w3.org/2000/svg" p-id="1475" xmlns:xlink="http://www.w3.org/1999/xlink" width="200" height="200"><defs><style type="text/css"></style></defs><path d="M116.4921875 215.07250977C116.4921875 160.64074707 160.73962402 116.4921875 215.07250977 116.4921875h593.85498046C863.35925293 116.4921875 907.5078125 160.73962402 907.5078125 215.07250977v593.85498046A98.62976075 98.62976075 0 0 1 808.92749023 907.5078125H215.07250977A98.62976075 98.62976075 0 0 1 116.4921875 808.92749023V215.07250977zM462.56152344 413.12304687h296.63085937V314.24609375H462.56152344v98.87695313z m0 148.31542969h296.63085937V462.56152344H462.56152344v98.87695312z m0 148.31542969h296.63085937v-98.87695313H462.56152344v98.87695313zM240.08837891 413.12304687h148.31542968V314.24609375h-148.31542968v98.87695313z m0 148.31542969h148.31542968V462.56152344h-148.31542968v98.87695312z m0 148.31542969h148.31542968v-98.87695313h-148.31542968v98.87695313z" p-id="1476"></path></svg>