<?xml version="1.0" standalone="no"?><!DOCTYPE svg PUBLIC "-//W3C//DTD SVG 1.1//EN" "http://www.w3.org/Graphics/SVG/1.1/DTD/svg11.dtd"><svg t="1558059172795" class="icon" style="" viewBox="0 0 1024 1024" version="1.1" xmlns="http://www.w3.org/2000/svg" p-id="1591" xmlns:xlink="http://www.w3.org/1999/xlink" width="200" height="200"><defs><style type="text/css"></style></defs><path d="M118.25 146.375v731.25h787.5v-731.25H118.25z m534.375 182.8125H849.5V455.75h-196.875V329.1875z m-281.25 492.1875H174.5v-129.375h196.875v129.375z m0-185.625H174.5V512h196.875v123.75z m0-180H174.5V329.1875h196.875V455.75z m225 365.625h-168.75v-129.375h168.75v129.375z m0-185.625h-168.75V512h168.75v123.75z m0-180h-168.75V329.1875h168.75V455.75z m253.125 365.625h-196.875v-129.375H849.5v129.375z m0-185.625h-196.875V512H849.5v123.75z" p-id="1592"></path></svg>