<?xml version="1.0" standalone="no"?><!DOCTYPE svg PUBLIC "-//W3C//DTD SVG 1.1//EN" "http://www.w3.org/Graphics/SVG/1.1/DTD/svg11.dtd"><svg t="1558058070009" class="icon" style="" viewBox="0 0 1024 1024" version="1.1" xmlns="http://www.w3.org/2000/svg" p-id="1793" xmlns:xlink="http://www.w3.org/1999/xlink" width="200" height="200"><defs><style type="text/css"></style></defs><path d="M511.706311 64.020082c-247.272733 0-447.725114 200.453405-447.725114 447.725114s200.452381 447.725114 447.725114 447.725114 447.725114-200.453405 447.725114-447.725114S758.979044 64.020082 511.706311 64.020082zM512.871857 309.894979c54.107315 0 97.970312 57.647955 97.970312 128.756479 0 71.114664-43.862997 128.756479-97.970312 128.756479-54.107315 0-97.968266-57.642838-97.968266-128.756479C414.903591 367.542934 458.764542 309.894979 512.871857 309.894979zM318.803883 719.024054c0 0 10.654664-85.167728 34.767851-101.245915 24.116257-16.07307 93.607958-26.745131 93.607958-26.745131s45.039799 48.143487 64.191998 48.143487c19.125593 0 64.187905-48.143487 64.187905-48.143487s69.498864 10.673084 93.610004 26.745131c28.377304 18.917862 35.440164 101.245915 35.440164 101.245915L318.803883 719.024054z" p-id="1794"></path></svg>