<?xml version="1.0" standalone="no"?><!DOCTYPE svg PUBLIC "-//W3C//DTD SVG 1.1//EN" "http://www.w3.org/Graphics/SVG/1.1/DTD/svg11.dtd"><svg t="1558058063735" class="icon" style="" viewBox="0 0 1024 1024" version="1.1" xmlns="http://www.w3.org/2000/svg" p-id="1559" xmlns:xlink="http://www.w3.org/1999/xlink" width="200" height="200"><defs><style type="text/css"></style></defs><path d="M783.91162109 116.4921875l-593.26171875 0c-40.78674317 0-74.15771484 33.37097168-74.15771484 74.15771484l0 642.70019532c0 40.78674317 33.37097168 74.15771484 74.15771484 74.15771484l593.26171875 0c40.78674317 0 74.15771484-33.37097168 74.15771485-74.15771484l0-642.70019532c0-40.78674317-33.37097168-74.15771484-74.15771485-74.15771484zM759.19238281 808.63085938l-543.82324219-1e-8 0-593.26171875 543.82324219 0 0 593.26171875zM314.24609375 561.43847656l346.06933594 0 0 49.43847657-346.06933594 0zM314.24609375 660.31542969l346.06933594 0 0 49.43847656-346.06933594 0zM363.68457031 338.96533203c0-40.95977783 33.19793701-74.15771484 74.15771485-74.15771484s74.15771484 33.19793701 74.15771484 74.15771484c0 40.95977783-33.19793701 74.15771484-74.15771484 74.15771484s-74.15771484-33.19793701-74.15771485-74.15771484zM487.28076172 413.12304687l-98.87695313 1e-8c-40.78674317 0-74.15771484 22.24731445-74.15771484 49.43847656l0 49.43847656 247.19238281 0 0-49.43847656c0-27.19116211-33.37097168-49.43847656-74.15771484-49.43847656z" p-id="1560"></path></svg>