<?xml version="1.0" standalone="no"?><!DOCTYPE svg PUBLIC "-//W3C//DTD SVG 1.1//EN" "http://www.w3.org/Graphics/SVG/1.1/DTD/svg11.dtd"><svg t="1558058858620" class="icon" style="" viewBox="0 0 1024 1024" version="1.1" xmlns="http://www.w3.org/2000/svg" p-id="1324" xmlns:xlink="http://www.w3.org/1999/xlink" width="200" height="200"><defs><style type="text/css"></style></defs><path d="M867.52 791.46666667c0 40.42666667-11.52 74.98666667-34.66666667 103.89333333S781.76 938.66666667 749.22666667 938.66666667H274.77333333c-32.64 0-60.48-14.50666667-83.62666666-43.30666667-23.14666667-28.90666667-34.66666667-63.57333333-34.66666667-103.89333333 0-31.46666667 1.49333333-61.22666667 4.69333333-89.17333334 3.2-27.94666667 8.96-56.10666667 17.49333334-84.48 8.53333333-28.26666667 19.41333333-52.58666667 32.53333333-72.74666666s30.61333333-36.69333333 52.26666667-49.38666667c21.65333333-12.69333333 46.61333333-19.2 74.77333333-19.2 48.53333333 47.46666667 106.45333333 71.14666667 173.86666667 71.14666667s125.33333333-23.68 173.86666666-71.14666667c28.16 0 53.01333333 6.4 74.77333334 19.2 21.65333333 12.69333333 39.04 29.22666667 52.26666666 49.38666667 13.12 20.26666667 24 44.37333333 32.53333334 72.74666666 8.53333333 28.26666667 14.4 56.42666667 17.49333333 84.48 2.98666667 27.94666667 4.48 57.70666667 4.48 89.17333334zM662.82666667 147.84C704.53333333 189.54666667 725.33333333 239.78666667 725.33333333 298.66666667s-20.8 109.12-62.50666666 150.82666666S570.88 512 512 512s-109.12-20.8-150.82666667-62.50666667S298.66666667 357.54666667 298.66666667 298.66666667s20.8-109.12 62.50666666-150.82666667S453.12 85.33333333 512 85.33333333s109.12 20.8 150.82666667 62.50666667z" p-id="1325"></path></svg>